<svg xmlns="http://www.w3.org/2000/svg" viewBox="0 0 1044.81 846.8"><defs><style>.cls-1{fill:#1b1b1b;}</style></defs><g id="레이어_2" data-name="레이어 2"><g id="레이어_6" data-name="레이어 6"><path class="cls-1" d="M172.54,818c-1.49,2.48-2.42,4.18-4.12,5.75s-4,3-8,5c-3.23,1.86-6.61,3.69-10.18,5.41s-7.43,3.32-11.32,4.78-7.83,2.81-12,3.91-8.34,2-12.55,2.68a106.11,106.11,0,0,1-12.65,1.29A94.33,94.33,0,0,1,89,846.33,78.26,78.26,0,0,1,65,840.06,79.94,79.94,0,0,1,43.7,825.74a82.8,82.8,0,0,1-9.25-10.27,118.63,118.63,0,0,1-8.33-12.41,148.44,148.44,0,0,1-7.37-14.43c-1.15-2.57-2.24-5.2-3.34-8s-2.19-5.63-3.23-8.56A391.9,391.9,0,0,1,.87,732.65a49.32,49.32,0,0,1-.79-6.93c-.09-1.5-.1-3-.06-4.43a13.89,13.89,0,0,1,.46-3.59A520,520,0,0,0,31,655.49c9.26-22.19,17.72-45.56,25.66-70l3-9.17L62.59,567l1.46-4.65,1.45-4.72,2.89-9.44c3.83-12.72,7.63-25.52,11.47-38.69,7.67-26.19,15.53-53.36,24.55-81.53,5-15.52,10.47-31.38,16.66-47.68l2.38-6.13c.81-2.06,1.54-4.07,2.43-6.17l5.18-12.5,5.67-12.71c.91-2.1,2-4.3,3.05-6.45l3.15-6.47,1.58-3.25,1.85-3.57c1.21-2.34,2.41-4.55,3.6-6.74,2.39-4.35,4.78-8.53,7.21-12.65s4.91-8.16,7.45-12.17l1.91-3,2-3.07,3.19-4.83,3.17-4.68c17.08-24.8,36.47-48,57.83-67s44.52-33.54,68.53-42.3a166.23,166.23,0,0,1,36.72-9A155.52,155.52,0,0,1,413,166.32l4.47,1.76c1.49.59,2.91,1.29,4.37,1.92s2.92,1.26,4.34,2l4.24,2.18c.7.37,1.41.72,2.11,1.11l2,1.21,4.11,2.42,4,2.56c1.34.85,2.68,1.7,4,2.63A170.43,170.43,0,0,1,475.21,209a191,191,0,0,1,12.2,14.73A184.63,184.63,0,0,1,498.12,240c13.6,22.85,22.92,50,28.2,79.37a435.68,435.68,0,0,1,5.39,45l.42,5.71.34,5.28.16,2.42,0,.37c0,.25,0,.51.08.77.12,1,.3,2.12.51,3.16a29.25,29.25,0,0,0,1.37,4.81,1.08,1.08,0,0,1,.1.27.26.26,0,0,1,.07.15h0l-.23.12-1.14.58c-1.54.75-3.06,1.54-4.57,2.4a146.19,146.19,0,0,0-17.27,10.92A96.52,96.52,0,0,0,498.39,413a50.1,50.1,0,0,0-7.17,9.63q-.24.41-.45.84l-.22.45-.2.41,0,0,0,0,0-.09.09-.17c.11-.23.2-.45.29-.68l.13-.33.18-.44a34.36,34.36,0,0,0,1.22-4.08,54.65,54.65,0,0,0,1.3-12.08v-1.12c0-.37,0-.83,0-1.37s-.07-1.13-.08-1.92a91.74,91.74,0,0,0-1.74-13.84c-.27-1.62-.68-3.21-1.09-5-.2-.9-.43-1.81-.68-2.72s-.53-1.84-.79-2.85c-.54-2-1.22-3.92-1.9-6.07l-.55-1.58-.29-.8-.08-.2,0-.1s0,0,0,0v0a.75.75,0,0,0,.13.11c.38.38,1.77.32,4-.32a39.37,39.37,0,0,0,8.87-4.29,65,65,0,0,0,5.74-4c.51-.37,1-.78,1.53-1.21s1.05-.82,1.57-1.29l1.59-1.38.22-.19.35-.36.69-.71,1.4-1.44,49.24-50.41C579.31,285.27,598,266,616.92,246.12c9.49-10,19.05-20.1,28.58-30.34l29.9-32.38c21.12-22.52,43.59-45,68-65.58q4.68-3.79,9.31-7.58,2.32-1.86,4.63-3.74c1.55-1.24,3-2.49,4.69-3.66,6.46-4.74,12.78-9.45,19.18-13.94,6.57-4.32,13.06-8.58,19.5-12.68q9.91-5.77,19.57-11.26c5.45-3,10.83-5.85,16.06-8.65l3.9-2.06,1.93-1,1.95-.92,7.66-3.63,7.48-3.5c2.47-1.13,4.89-2.31,7.31-3.28L880.75,36c18.4-7.39,35-13,49.9-17.58,7.45-2.36,14.49-4.29,21.13-6.07S964.66,9,970.51,7.65C982.22,5,992.39,3,1001.14,1.77c35-4.9,47.25.64,42.79,13.36s-25.8,32.59-57,56.79q-5.82,4.55-12.11,9.28c-2.12,1.56-4.2,3.18-6.31,4.81L962,90.92l-6.66,5c-2.25,1.67-4.55,3.35-6.76,5.1q-6.74,5.19-13.79,10.5c-18.5,14.33-37.48,29.61-54.94,46.35,1.16-.54.83.19-.8,2-.81.92-2,2.11-3.39,3.56s-3.24,3.07-5.1,5.15-4.09,4.32-6.5,6.81l-3.8,3.9c-1.33,1.35-2.6,2.91-4,4.44l-8.85,9.86-9.64,11.68-2.56,3.09c-.87,1-1.7,2.2-2.57,3.32l-5.28,6.9-5.48,7.13-5.57,7.79c-3.76,5.3-7.68,10.54-11.58,16.47q-2.94,4.35-5.95,8.8c-2,3-4.06,5.87-6.07,9.07q-6.07,9.39-12.36,19.12-3.42,5.26-6.87,10.6l-7.1,10.82c-9.53,14.47-19.37,29-29.32,43.47-19.89,28.88-40.25,57.36-59.44,83.85l-14.14,19.46-6.85,9.4q-1.7,2.31-3.36,4.6l-1.67,2.28c-.58.79-1,1.36-1.94,2.59a260.25,260.25,0,0,1-45.23,46,209.66,209.66,0,0,1-55.24,31.57,176.7,176.7,0,0,1-30.92,8.61,158.54,158.54,0,0,1-31.83,2.5A149.23,149.23,0,0,1,456.74,559c-4.64-1.15-8.83-2.27-12.84-3.66-2-.68-3.85-1.32-5.65-2s-3.53-1.42-5.15-2.11c-3.24-1.36-6-2.72-8.34-3.91s-4.25-2.26-5.77-3.12l-3.42-2-1.1-.69A148.57,148.57,0,0,1,391.27,523a161.74,161.74,0,0,1-16.75-19.13,187.26,187.26,0,0,1-21.13-36.42,219.37,219.37,0,0,1-11.78-34.06,235.79,235.79,0,0,1-6.12-33.6l-.54-5.71h0s0,0,0,0h0L335,394l-2.21,3.46c-1.5,2.38-3,4.78-4.37,7.16s-2.76,4.77-4,7c-.61,1.13-1.21,2.24-1.74,3.25l-.75,1.46-.88,1.85-1.8,3.72c-.6,1.26-1.22,2.42-1.8,3.79l-3.55,8-3.48,8.45c-.59,1.37-1.14,2.92-1.71,4.38L307,451c-4.52,12-8.9,24.68-13.16,37.92-7.76,24.23-15.2,49.9-23,76.51-3.86,13.24-7.87,26.81-12,40.43l-3.14,10.29-1.58,5.14-1.63,5.19-3.26,10.38-3.39,10.45c-9.06,27.88-19.24,56.31-31.15,84.91A718.84,718.84,0,0,1,172.54,818Z"/></g></g></svg>