<svg xmlns="http://www.w3.org/2000/svg" viewBox="0 0 346.52 280.71"><defs><style>.cls-1{fill:#1b1b1b;}</style></defs><g id="레이어_2" data-name="레이어 2"><g id="레이어_4" data-name="레이어 4"><path class="cls-1" d="M44.17,272.84c-.65,1.24-.91,1.7-2.87,2.73a34.5,34.5,0,0,1-11.09,4.59,23,23,0,0,1-12.35-.63,20.23,20.23,0,0,1-5.58-3.16A24.28,24.28,0,0,1,7.48,271a40,40,0,0,1-3.93-7.57A86.06,86.06,0,0,1,.3,253.53a12.42,12.42,0,0,1-.22-3.82c5.33-10.11,9.33-21.31,12.75-33.6s6.3-25.63,10.15-39.83c1.45-5.28,3.05-10.67,4.89-16.12s4-11,6.48-16.49A138.21,138.21,0,0,1,43,127.39c1.58-2.68,3.39-5.26,5.16-7.83l2.81-3.79.69-.91.6-.77,1.26-1.6c3.44-4.37,7.2-8.84,11.25-13.2A135.29,135.29,0,0,1,78.35,86.43a91.74,91.74,0,0,1,8.43-6.13L88,79.53l1.63-1c1.1-.64,2.22-1.26,3.35-1.84a64.57,64.57,0,0,1,6.94-3,49.16,49.16,0,0,1,14.54-3.13A45.24,45.24,0,0,1,129,72.1c1.16.35,2.33.71,3.48,1.1s2.25,1,3.35,1.46A35.74,35.74,0,0,1,139,76.39l1.57.93c.52.33,1,.69,1.51,1,1,.71,2,1.41,2.94,2.18s1.84,1.63,2.73,2.46c.45.42.91.85,1.33,1.27l1.17,1.39,2.33,2.78a7,7,0,0,1,1,1.56l.92,1.64c.6,1.11,1.25,2.18,1.8,3.31L158,98.38c.55,1.16,1.07,2.25,1.58,3.51l.76,2,.53,1.42.85,2.56c.59,1.71,1,3.44,1.5,5.17a100.9,100.9,0,0,1,2,10.16c.44,3.26.74,6.39.95,9.27l.5,7.82.12,1.82c.06.74.06,1.3.1,2s0,1.31,0,1.88l0,1.85v1.08a9.74,9.74,0,0,0,.22,2c.05.13.06.22.08.25s0,0,0,0h0c4.15-2.32-36.43,20.34-19.14,10.7l.2-.11a6.77,6.77,0,0,0,1.47-1,6.92,6.92,0,0,0,.61-.6l.15-.17.23-.19.46-.38a20,20,0,0,0,1.67-1.65c.26-.29.51-.59.75-.89s.42-.6.76-.95l.9-1,.44-.53c14-17.49,3.87-4.86,7-8.77l0,0-.2-.14-.1-.06h0s0,0,0,0,0,0,0,0l0,0s.07,0,.1,0l.05,0,.15-.1,1-.58c.62-.4,1.16-.87,1.77-1.27s1.1-.93,1.67-1.37,1-.93,1.84-1.72a63,63,0,0,0,4.88-5.84c1.73-2.36,3.63-5.16,5.67-8.19s4.35-6.43,6.83-9.86c.61-.85,1.29-1.72,1.93-2.58l1.85-2.43,3.23-4.21,8.13-9.33c5.13-5.91,12.38-14.42,21.17-24.22a399.52,399.52,0,0,1,30.78-31.09A205.27,205.27,0,0,1,290.25,16a133.27,133.27,0,0,1,27.36-12.3,92.38,92.38,0,0,1,10.33-2.58,58,58,0,0,1,7.94-1c9-.4,11.76,1.59,10.23,4.54-.74,1.51-2.53,3.31-5.09,5.35-1.27,1.07-2.72,2.21-4.35,3.38s-3.36,2.57-5.25,3.92c-3.72,2.88-8,6-12.38,9.65S310,34.57,305.33,39c1.26-.54-4,4-11.74,12.3-3.86,4.14-8.29,9.25-12.91,15s-9.4,12.22-14.08,18.91C257.23,98.62,248.19,113,241,124c-3.57,5.51-6.67,10.17-8.86,13.44l-3.5,5.14c-3.29,4.24-6.48,9.08-10.41,14.89-1,1.52-2,2.95-3.18,4.56l-1.72,2.37-1.88,2.45c-.6.81-1.32,1.65-2,2.48s-1.37,1.66-2.14,2.5c-1.54,1.67-3,3.33-4.77,4.94l-1.95,1.86-2.09,1.77-2.1,1.76-2.2,1.63-2.22,1.6c-.75.52-1.51,1-2.27,1.47l-2.7,1.68c-1.05.63-2.23,1.16-3.34,1.74-2.27,1.11-4.49,2.32-6.8,3.34a17.94,17.94,0,0,1-3.5,1.21l-3.53,1a36.31,36.31,0,0,1-14.7-.59A66.48,66.48,0,0,1,141,190.14a56.8,56.8,0,0,1-6.61-3.79c-.54-.38-1-.66-1.68-1.2l-.95-.73-1-.81c-1-.84-1.9-1.75-2.79-2.68l-.34-.36-.54-.64c-.38-.44-.74-.9-1.09-1.37a32.69,32.69,0,0,1-1.94-2.91l-.19-.32,0-.11-.12-.21-.22-.42-.44-.84c-.28-.57-.58-1.14-.84-1.71-.5-1.15-1-2.31-1.45-3.47a52.48,52.48,0,0,1-2.08-7,56.4,56.4,0,0,1-1.08-6.7c-.22-2.16-.31-4.24-.32-6.07v-3.35l-.06-.84-.14-2.07c-.17-2.72-.3-5.08-.47-7.24s-.37-4.06-.63-5.79a40.89,40.89,0,0,0-1-4.75l-.92-3-.65.43c-.6.36-1.26.89-1.91,1.32s-1.34,1-2,1.62a88.13,88.13,0,0,0-8.56,8.19c-2.88,3.12-5.68,6.45-8.55,10.1l-1.11,1.42-.55.71-.44.59-1.75,2.35c-1.08,1.64-2.22,3.23-3.22,5a93.75,93.75,0,0,0-5.64,10.73c-1.69,3.8-3.25,7.77-4.67,12s-2.72,8.58-4,13.13c-3.36,12.34-6.26,25.92-10.21,40.13S51.67,258.58,44.17,272.84Z"/></g></g></svg>